# xmcd
#
# Track frame offsets: 
#        150
#        6068
#        18055
#        31402
#        45117
#        57745
#        69769
#        81023
#        93940
#        107980
#        122443
#        137203
#        147396
#        161427
#        172967
#        185927
#        199654
#        211491
#        223116
#        233688
#        246719
#        259020
#        272627
#        284221
#        294075
#        307540
#        318833
#        328800
#        341422
#
# Disc length: 4716 seconds
#
# Revision: 0
# Processed by: cddbd v1.5.2PL0 Copyright (c) Steve Scherf et al.
# Submitted via: ExactAudioCopy v1.0b1
#
DISCID=a3126a1d
DTITLE=Johnny Otis - Rock Me Baby
DYEAR=2007
DGENRE=R and B
TTITLE0=Johnny Otis Radio Show Signature Tune
TTITLE1=Oopy Oo
TTITLE2=One O'Clock Jump
TTITLE3=Baby Baby Blues
TTITLE4=One Nighter Blues
TTITLE5=The Love Bug Boogie
TTITLE6=Gypsy Blues
TTITLE7=Goomp Blues
TTITLE8=Sugar Sugar
TTITLE9=Why Don't You Believe Me
TTITLE10=Stardust
TTITLE11=The Candle's Burnin' Low
TTITLE12=Call Operator 210
TTITLE13=The Last Mile
TTITLE14=Brown Skin Butterball
TTITLE15=The Game Is Over
TTITLE16=Wishing Well
TTITLE17=Rock Me Baby
TTITLE18=Young Girl
TTITLE19=Sad Story
TTITLE20=Shake It
TTITLE21=I Won't Be Your Fool No More
TTITLE22=Boom Diddy Wa Wa
TTITLE23=Sittin' Here Drinkin'
TTITLE24=You Got Me Cryin'
TTITLE25=Better Stop
TTITLE26=Butterball
TTITLE27=Sandy's Boogie
TTITLE28=Yes Baby
EXTD=
EXTT0=
EXTT1=
EXTT2=
EXTT3=
EXTT4=
EXTT5=
EXTT6=
EXTT7=
EXTT8=
EXTT9=
EXTT10=
EXTT11=
EXTT12=
EXTT13=
EXTT14=
EXTT15=
EXTT16=
EXTT17=
EXTT18=
EXTT19=
EXTT20=
EXTT21=
EXTT22=
EXTT23=
EXTT24=
EXTT25=
EXTT26=
EXTT27=
EXTT28=
PLAYORDER=
